<svg xmlns="http://www.w3.org/2000/svg" viewBox="0 0 1400 900" preserveAspectRatio="xMidYMid slice">
  <rect width="1400" height="900" fill="#f8fafc"/>
  <g fill="none" stroke-linecap="round">
    <path d="M86 645C278 433 452 331 638 337c186 7 310 126 490 2 79-54 138-126 186-212" stroke="#d9e2ec" stroke-width="2"/>
    <path d="M44 500c181-74 347-85 499-34 178 61 314 207 519 175 111-17 207-77 296-170" stroke="#d9e2ec" stroke-width="2"/>
    <path d="M236 736c171-111 329-158 472-141 163 20 297 121 455 88 71-14 132-51 183-109" stroke="#c8d7e8" stroke-width="2"/>
    <path d="M790 142l286 170 191-122" stroke="#123f76" stroke-width="4" opacity=".16"/>
    <path d="M427 275l235 134 284-210" stroke="#2b6f73" stroke-width="4" opacity=".16"/>
  </g>
  <g>
    <circle cx="427" cy="275" r="8" fill="#b6904d"/>
    <circle cx="662" cy="409" r="8" fill="#061a3a"/>
    <circle cx="946" cy="199" r="8" fill="#b6904d"/>
    <circle cx="790" cy="142" r="7" fill="#061a3a"/>
    <circle cx="1076" cy="312" r="7" fill="#b6904d"/>
    <circle cx="1267" cy="190" r="7" fill="#061a3a"/>
  </g>
  <g fill="#ffffff" stroke="#dde4ec">
    <rect x="792" y="430" width="330" height="196" rx="3"/>
    <rect x="840" y="478" width="330" height="196" rx="3"/>
    <rect x="888" y="526" width="330" height="196" rx="3"/>
  </g>
  <g fill="#061a3a" opacity=".78">
    <rect x="924" y="565" width="124" height="10"/>
    <rect x="924" y="596" width="216" height="8"/>
    <rect x="924" y="622" width="172" height="8"/>
  </g>
  <rect x="924" y="654" width="84" height="16" fill="#b6904d" opacity=".8"/>
</svg>
